<?xml version="1.0" standalone="no"?>
<!DOCTYPE svg PUBLIC "-//W3C//DTD SVG 20010904//EN"
 "http://www.w3.org/TR/2001/REC-SVG-20010904/DTD/svg10.dtd">
<svg version="1.0" xmlns="http://www.w3.org/2000/svg"
 width="412.000000pt" height="154.000000pt" viewBox="0 0 412.000000 154.000000"
 preserveAspectRatio="xMidYMid meet">

<g transform="translate(0.000000,154.000000) scale(0.100000,-0.100000)"
fill="#000000" stroke="none">
<path d="M1390 780 c0 -633 2 -720 15 -720 13 0 15 87 15 720 0 633 -2 720
-15 720 -13 0 -15 -87 -15 -720z"/>
<path d="M412 1257 c-214 -125 -241 -143 -225 -154 9 -8 119 -70 244 -138
l227 -125 247 136 c209 116 245 138 229 147 -11 6 -122 71 -247 144 -126 73
-229 133 -230 133 -1 0 -111 -64 -245 -143z"/>
<path d="M2313 1126 c-41 -19 -67 -68 -59 -112 7 -37 34 -59 109 -92 38 -17
47 -26 47 -45 0 -35 -24 -40 -89 -21 -52 15 -56 15 -68 -2 -22 -30 -15 -42 32
-59 31 -12 62 -16 101 -13 49 4 62 10 86 37 57 64 26 139 -77 181 -45 18 -55
27 -55 46 0 21 4 24 41 24 22 0 50 -5 61 -11 18 -9 24 -8 35 7 30 40 7 60 -78
69 -36 4 -65 1 -86 -9z"/>
<path d="M3482 1124 c-19 -10 -41 -32 -49 -50 -29 -59 1 -108 90 -146 57 -25
74 -49 51 -72 -19 -19 -27 -19 -79 -1 -54 20 -60 19 -73 -10 -16 -34 -18 -31
28 -49 112 -45 220 -1 220 89 0 50 -25 77 -103 115 -37 18 -52 31 -52 45 0 16
8 21 37 23 20 2 47 -2 58 -8 25 -14 50 2 50 31 0 24 -27 37 -91 44 -40 4 -63
1 -87 -11z"/>
<path d="M1570 1004 c0 -144 11 -181 64 -209 24 -13 47 -17 90 -13 102 8 125
53 126 241 l0 107 -45 0 -45 0 0 -129 c0 -104 -3 -133 -16 -145 -19 -20 -44
-20 -70 -2 -16 12 -19 29 -22 123 -4 149 -5 153 -47 153 l-35 0 0 -126z"/>
<path d="M1920 955 l0 -175 35 0 35 0 0 123 1 122 53 -120 52 -120 50 0 49 0
3 173 2 173 -37 -3 -38 -3 -5 -116 -5 -116 -50 119 -50 118 -47 0 -48 0 0
-175z"/>
<path d="M2552 958 l3 -173 40 0 40 0 3 53 c3 48 5 52 28 52 34 0 85 23 107
48 43 48 26 156 -29 181 -14 6 -63 11 -110 11 l-84 0 2 -172z m158 86 c14 -36
2 -74 -27 -85 -40 -15 -43 -12 -43 51 l0 60 30 0 c24 0 33 -6 40 -26z"/>
<path d="M2850 971 c0 -190 1 -191 110 -191 72 0 110 18 110 51 0 17 -7 19
-70 19 l-69 0 -3 138 -3 137 -37 3 -38 3 0 -160z"/>
<path d="M3141 967 c-30 -91 -50 -170 -47 -176 4 -6 20 -11 36 -11 25 0 31 5
41 40 l12 40 53 0 c51 0 53 -1 71 -37 14 -29 25 -39 47 -41 16 -2 32 0 37 5 5
5 -16 82 -46 173 l-54 165 -48 3 -49 3 -53 -164z m118 21 c16 -66 15 -68 -25
-68 -30 0 -35 3 -29 18 3 9 11 38 17 65 13 54 21 51 37 -15z"/>
<path d="M3722 958 l3 -173 40 0 40 0 3 73 3 72 49 0 49 0 3 -72 3 -73 40 0
40 0 3 173 2 172 -45 0 -45 0 0 -65 0 -65 -50 0 -50 0 0 65 0 65 -45 0 -45 0
2 -172z"/>
<path d="M120 733 l0 -288 228 -132 c126 -73 236 -135 245 -139 16 -6 17 17
17 287 l0 294 -236 130 c-130 72 -240 132 -245 133 -5 2 -9 -119 -9 -285z"/>
<path d="M947 889 l-237 -131 0 -295 c0 -163 4 -293 9 -291 5 1 113 63 240
137 l231 134 0 288 c0 159 -1 289 -3 289 -1 0 -109 -59 -240 -131z"/>
<path d="M1570 550 l0 -130 90 0 c83 0 90 1 90 20 0 18 -7 20 -70 20 l-70 0 0
110 c0 103 -1 110 -20 110 -19 0 -20 -7 -20 -130z"/>
<path d="M1860 550 c0 -123 1 -130 20 -130 19 0 20 7 20 130 0 123 -1 130 -20
130 -19 0 -20 -7 -20 -130z"/>
<path d="M2010 660 c0 -17 7 -20 45 -20 l45 0 0 -110 c0 -103 1 -110 20 -110
19 0 20 7 20 110 l0 110 45 0 c38 0 45 3 45 20 0 19 -7 20 -110 20 -103 0
-110 -1 -110 -20z"/>
<path d="M2340 550 l0 -130 100 0 c93 0 100 1 100 20 0 18 -7 20 -80 20 l-80
0 0 34 0 35 52 3 c42 2 54 7 56 21 3 17 -2 19 -52 15 l-56 -3 0 37 0 37 72 3
c60 2 73 6 76 21 3 15 -6 17 -92 17 l-96 0 0 -130z"/>
</g>
</svg>
